<svg xmlns="http://www.w3.org/2000/svg" xmlns:xlink="http://www.w3.org/1999/xlink" id="Layer_1" x="0px" y="0px" viewBox="0 0 670 377" style="enable-background:new 0 0 670 377;" xml:space="preserve">
<style type="text/css">
	.st0{fill:#FEF7E4;}
	.st1{fill:#F4E6B5;}
	.st2{fill:#56537B;}
	.st3{fill:#E0E0E0;}
	.st4{fill:#E5BFA1;}
	.st5{fill:#FFFFFF;}
	.st6{fill:#FCEBBF;}
	.st7{fill:#F8C94E;}
	.st8{fill:#EDB421;}
	.st9{fill:#F6BA1E;}
	.st10{fill-rule:evenodd;clip-rule:evenodd;fill:#F6BA1E;}
	.st11{fill:#9995A5;}
	.st12{display:none;fill:#3D3A59;}
</style>
<path class="st0" d="M469.3,376l0-357.2C368.7-32.6,351.6,39.1,293,25.9C217.7,9,184.4,17.8,149.6,117.1  C114.8,216.4,6.3,191.7,0.3,273.2c-0.1,1.1-0.1,2.2-0.2,3.4c-2.2,46.9,30.5,86.9,74.5,97c7,1.6,14.3,2.5,21.8,2.5H469.3z"></path>
<path class="st0" d="M200.7,376c0-102.5,0-205.1,0-307.6c17.4-7.1,42.7-17,73.8-27.4c36.9-12.3,65-21.5,102.4-27  c42.4-6.2,63.8-9.7,83.4,0.2c23.8,12,41.7,40.1,60,94.1c34.8,102.7,143.3,77.1,149.3,161.4c0.1,1.2,0.1,2.3,0.2,3.5  c2.2,48.5-30.5,89.8-74.5,100.3c-7,1.7-14.3,2.5-21.8,2.5L200.7,376L200.7,376z"></path>
<path class="st1" d="M167.2,273.8l-7.7-9.7c0,0,3.1-8.6,0-15c-3.1-6.4-4.7-15.9-6.5-15.9c-1.8,0-6.1,6.2-0.9,16.2  c0,0-17.3-2.6-22.1-8.6c-4.8-6-7.4-13.1-10-9.9c-2.6,3.2-6.4,15.4,4.8,27.6c11.1,12.2,22.7,11.6,22.7,11.6l12.6,17.7l12-9.6  L167.2,273.8z"></path>
<path class="st2" d="M276.5,228.1l-17.3-19.7c0,0-30.7,37.7-46.1,95.1c0,0-28.4-26.2-41.4-35.3c0,0-17.9,4.2-25.5,17.9  c0,0,50.1,73.3,69,80.8c18.9,7.5,57-53.5,57-53.5L276.5,228.1z"></path>
<path class="st2" d="M360.7,225.5l10.1-17.1c0,0,27,29.6,47.3,90.1l3.1,53.9l-60.3,5.3l-15.5-63.5L360.7,225.5z"></path>
<path class="st3" d="M335.9,376c3.9-18.6,17-91.3,17-91.3l-3.5-77.4l-34.4-7.4l-34.4,7.4l-3.5,77.4c0,0,13.1,72.7,17,91.3H335.9z"></path>
<path class="st2" d="M335,376h37.1c1.9-22,9.9-123.9-1.4-167.7c0,0-17.8-9.2-41.7-15.3C329.2,193,337.5,304.8,335,376z"></path>
<path class="st2" d="M295,376c-2.5-71.2,5.9-183,5.9-183c-23.9,6.2-41.7,15.3-41.7,15.3c-11.3,43.8-3.3,145.6-1.4,167.7H295z"></path>
<path class="st4" d="M315,168.4l11.7,6.5l2.5,18.1c0,0-1.1,10.5-14.2,17.1c-13.1-6.6-14.2-17.1-14.2-17.1l2.5-18.1L315,168.4z"></path>
<path class="st5" d="M315,212c5.7-0.1,22.4,13.5,22.4,13.5s1.7-19.5-0.3-30.3c0,0-2.5-6.5-8.8-8.8c0,0-1.2,10-13.3,22.9  c-12-12.9-13.3-22.9-13.3-22.9c-6.3,2.4-8.8,8.8-8.8,8.8c-2.1,10.8-0.3,30.3-0.3,30.3S309.3,211.9,315,212z"></path>
<path class="st5" d="M315.8,244.2c1.6,0,2.9-1.3,2.9-2.9c0-1.6-1.3-2.9-2.9-2.9c-1.6,0-2.9,1.3-2.9,2.9  C312.8,242.9,314.1,244.2,315.8,244.2z"></path>
<path class="st5" d="M315.8,287.4c1.6,0,2.9-1.3,2.9-2.9s-1.3-2.9-2.9-2.9c-1.6,0-2.9,1.3-2.9,2.9S314.1,287.4,315.8,287.4z"></path>
<path class="st5" d="M315.8,330.6c1.6,0,2.9-1.3,2.9-2.9c0-1.6-1.3-2.9-2.9-2.9c-1.6,0-2.9,1.3-2.9,2.9  C312.8,329.3,314.1,330.6,315.8,330.6z"></path>
<path class="st6" d="M398.5,274.9l-33.2,92.9h-53.6v8.2h50.6h12.1h126.4l36.2-101.1H398.5z"></path>
<path class="st7" d="M507.7,376H369.3l36.2-101.1h138.4L507.7,376z"></path>
<path class="st8" d="M473.4,325.4c-1.6,7.9-7.3,14.3-12.7,14.3s-8.5-6.4-6.9-14.3c1.6-7.9,7.3-14.3,12.7-14.3  C471.9,311.1,475,317.5,473.4,325.4z"></path>
<path class="st9" d="M409.7,230.5c20.3,0,36.8-16.5,36.8-36.8c0-20.3-16.5-36.8-36.8-36.8c-20.3,0-36.8,16.5-36.8,36.8  C372.9,214.1,389.3,230.5,409.7,230.5z"></path>
<path class="st5" d="M409.7,220.8c14.9,0,27-12.1,27-27c0-14.9-12.1-27-27-27s-27,12.1-27,27C382.6,208.7,394.7,220.8,409.7,220.8z"></path>
<path class="st5" d="M386.9,199.9l-20.3-13.5l24.4-2.8L386.9,199.9z"></path>
<path class="st9" d="M395.4,182.6V205h28.5v-22.4H395.4z M421.7,183.9l-12,11.7l-12-11.7H421.7z"></path>
<path class="st9" d="M381.8,84.5c20.3,0,36.8-16.5,36.8-36.8c0-20.3-16.5-36.8-36.8-36.8c-20.3,0-36.8,16.5-36.8,36.8  C345,68,361.5,84.5,381.8,84.5z"></path>
<path class="st5" d="M408.5,52.1c2.4-14.7-7.6-28.6-22.3-31c-14.7-2.4-28.6,7.6-31,22.3c-2.4,14.7,7.6,28.6,22.3,31  C392.2,76.8,406.1,66.8,408.5,52.1z"></path>
<path class="st5" d="M362.1,54.4l-12.8,30.1l27.9-15L362.1,54.4z"></path>
<path class="st9" d="M377.1,57.9V37.4l16.4,10.2L377.1,57.9z"></path>
<path class="st9" d="M214.2,178.2c4.8-19.7-7.4-39.6-27.1-44.4c-19.8-4.8-39.6,7.4-44.4,27.1c-4.8,19.7,7.4,39.6,27.1,44.4  C189.6,210,209.4,197.9,214.2,178.2z"></path>
<path class="st5" d="M204.8,175.7c3.4-14.5-5.6-29.1-20.2-32.5c-14.5-3.4-29.1,5.6-32.5,20.1c-3.4,14.5,5.6,29.1,20.2,32.5  C186.8,199.2,201.4,190.2,204.8,175.7z"></path>
<path class="st5" d="M193.6,182.1l28.1-11.9L195,158.3L193.6,182.1z"></path>
<path class="st10" d="M166.9,163.1c0-2.3,1-4.3,2.7-5.9c0.7-0.6,1.6-1.8,2.6-1.6c1.1,0.1,1.8,1.3,2.4,2.1c0.9,1.4,2.4,3.5,1,5.2  c-0.6,0.8-1.7,1.2-2.3,2c-0.6,0.8-0.3,2,0.2,2.8c1,1.9,2.6,3.7,4.2,5.1c0.7,0.6,1.7,1.3,2.7,1.2c1-0.2,1.9-1.3,2.6-2  c2-1.6,4.1,0.6,5.6,1.9c0.7,0.6,1.5,1.4,1.4,2.4c0,1-1.3,1.8-2.1,2.4c-1.9,1.6-4.3,2.1-6.7,1.6c-2.6-0.6-4.8-2.1-6.7-3.8  c-2-1.8-3.7-3.9-5.2-6.1c-0.7-1-1.3-2.1-1.7-3.3C167.2,165.7,167,164.4,166.9,163.1C166.9,161.8,167,163.8,166.9,163.1z"></path>
<path class="st11" d="M198.8,231.7v4.7c0,0.3-0.2,0.5-0.5,0.5s-0.5-0.2-0.5-0.5v-4.7c0-0.3,0.2-0.5,0.5-0.5S198.8,231.4,198.8,231.7  z M198.3,240c-0.3,0-0.5,0.2-0.5,0.5v4.7c0,0.3,0.2,0.5,0.5,0.5s0.5-0.2,0.5-0.5v-4.7C198.8,240.2,198.6,240,198.3,240z   M205.1,237.9h-4.7c-0.3,0-0.5,0.2-0.5,0.5c0,0.3,0.2,0.5,0.5,0.5h4.7c0.3,0,0.5-0.2,0.5-0.5C205.6,238.1,205.4,237.9,205.1,237.9z   M196.2,237.9h-4.7c-0.3,0-0.5,0.2-0.5,0.5c0,0.3,0.2,0.5,0.5,0.5h4.7c0.3,0,0.5-0.2,0.5-0.5C196.8,238.1,196.5,237.9,196.2,237.9z"></path>
<path class="st11" d="M90.6,269.4v4.7c0,0.3-0.2,0.5-0.5,0.5c-0.3,0-0.5-0.2-0.5-0.5v-4.7c0-0.3,0.2-0.5,0.5-0.5  C90.3,268.8,90.6,269.1,90.6,269.4z M90,277.6c-0.3,0-0.5,0.2-0.5,0.5v4.7c0,0.3,0.2,0.5,0.5,0.5c0.3,0,0.5-0.2,0.5-0.5v-4.7  C90.6,277.9,90.3,277.6,90,277.6z M96.8,275.6h-4.7c-0.3,0-0.5,0.2-0.5,0.5c0,0.3,0.2,0.5,0.5,0.5h4.7c0.3,0,0.5-0.2,0.5-0.5  C97.3,275.8,97.1,275.6,96.8,275.6z M88,275.6h-4.7c-0.3,0-0.5,0.2-0.5,0.5c0,0.3,0.2,0.5,0.5,0.5H88c0.3,0,0.5-0.2,0.5-0.5  C88.5,275.8,88.3,275.6,88,275.6z"></path>
<path class="st11" d="M476.1,132.7c0-1-0.1-2-0.4-3l2.2-2.1l-1.2-2.1l-0.2-0.3l-1.2-2.1l-2.9,0.8c-1.5-1.4-3.3-2.5-5.2-3l-0.8-2.9  h-2.5h-0.4H461l-0.8,2.9c-2,0.6-3.8,1.6-5.2,3l-2.9-0.8l-1.2,2.1l-0.2,0.3l-1.2,2.1l2.2,2.1c-0.2,1-0.4,2-0.4,3c0,1,0.1,2.1,0.4,3  l-2.2,2.1l1.2,2.1l0.2,0.3l1.2,2.1l2.9-0.8c1.5,1.4,3.3,2.5,5.2,3l0.8,2.9h2.5h0.4h2.5l0.8-2.9c2-0.6,3.8-1.6,5.2-3l2.9,0.8l1.2-2.1  l0.2-0.3l1.2-2.1l-2.2-2.1C475.9,134.8,476.1,133.8,476.1,132.7z M463.6,139c-3.5,0-6.3-2.8-6.3-6.3c0-3.5,2.8-6.3,6.3-6.3  c3.5,0,6.3,2.8,6.3,6.3C469.9,136.2,467.1,139,463.6,139z"></path>
<path class="st11" d="M461.8,58.4v4.7c0,0.3-0.2,0.5-0.5,0.5c-0.3,0-0.5-0.2-0.5-0.5v-4.7c0-0.3,0.2-0.5,0.5-0.5  C461.6,57.9,461.8,58.2,461.8,58.4z M461.3,66.7c-0.3,0-0.5,0.2-0.5,0.5v4.7c0,0.3,0.2,0.5,0.5,0.5c0.3,0,0.5-0.2,0.5-0.5v-4.7  C461.8,67,461.6,66.7,461.3,66.7z M468,64.7h-4.7c-0.3,0-0.5,0.2-0.5,0.5s0.2,0.5,0.5,0.5h4.7c0.3,0,0.5-0.2,0.5-0.5  S468.3,64.7,468,64.7z M459.2,64.7h-4.7c-0.3,0-0.5,0.2-0.5,0.5s0.2,0.5,0.5,0.5h4.7c0.3,0,0.5-0.2,0.5-0.5S459.5,64.7,459.2,64.7z"></path>
<path class="st11" d="M243,38v4.7c0,0.3-0.2,0.5-0.5,0.5c-0.3,0-0.5-0.2-0.5-0.5V38c0-0.3,0.2-0.5,0.5-0.5  C242.8,37.4,243,37.7,243,38z M242.5,46.2c-0.3,0-0.5,0.2-0.5,0.5v4.7c0,0.3,0.2,0.5,0.5,0.5c0.3,0,0.5-0.2,0.5-0.5v-4.7  C243,46.5,242.8,46.2,242.5,46.2z M249.2,44.2h-4.7c-0.3,0-0.5,0.2-0.5,0.5c0,0.3,0.2,0.5,0.5,0.5h4.7c0.3,0,0.5-0.2,0.5-0.5  C249.8,44.4,249.5,44.2,249.2,44.2z M240.4,44.2h-4.7c-0.3,0-0.5,0.2-0.5,0.5c0,0.3,0.2,0.5,0.5,0.5h4.7c0.3,0,0.5-0.2,0.5-0.5  C241,44.4,240.7,44.2,240.4,44.2z"></path>
<path class="st11" d="M544.2,209.6v4.7c0,0.3-0.2,0.5-0.5,0.5c-0.3,0-0.5-0.2-0.5-0.5v-4.7c0-0.3,0.2-0.5,0.5-0.5  C543.9,209.1,544.2,209.4,544.2,209.6z M543.6,217.9c-0.3,0-0.5,0.2-0.5,0.5v4.7c0,0.3,0.2,0.5,0.5,0.5c0.3,0,0.5-0.2,0.5-0.5v-4.7  C544.2,218.2,543.9,217.9,543.6,217.9z M550.4,215.9h-4.7c-0.3,0-0.5,0.2-0.5,0.5s0.2,0.5,0.5,0.5h4.7c0.3,0,0.5-0.2,0.5-0.5  S550.7,215.9,550.4,215.9z M541.6,215.9h-4.7c-0.3,0-0.5,0.2-0.5,0.5s0.2,0.5,0.5,0.5h4.7c0.3,0,0.5-0.2,0.5-0.5  S541.9,215.9,541.6,215.9z"></path>
<path class="st11" d="M584.4,291.9v4.7c0,0.3-0.2,0.5-0.5,0.5c-0.3,0-0.5-0.2-0.5-0.5v-4.7c0-0.3,0.2-0.5,0.5-0.5  C584.2,291.4,584.4,291.6,584.4,291.9z M583.9,300.2c-0.3,0-0.5,0.2-0.5,0.5v4.7c0,0.3,0.2,0.5,0.5,0.5c0.3,0,0.5-0.2,0.5-0.5v-4.7  C584.4,300.4,584.2,300.2,583.9,300.2z M590.6,298.1h-4.7c-0.3,0-0.5,0.2-0.5,0.5c0,0.3,0.2,0.5,0.5,0.5h4.7c0.3,0,0.5-0.2,0.5-0.5  C591.2,298.3,590.9,298.1,590.6,298.1z M581.8,298.1h-4.7c-0.3,0-0.5,0.2-0.5,0.5c0,0.3,0.2,0.5,0.5,0.5h4.7c0.3,0,0.5-0.2,0.5-0.5  C582.4,298.3,582.1,298.1,581.8,298.1z"></path>
<path class="st11" d="M76.1,324.8c0-0.7-0.1-1.3-0.2-2l1.4-1.4l-0.8-1.4l-0.1-0.2l-0.8-1.4l-1.9,0.5c-1-0.9-2.1-1.6-3.4-2l-0.5-1.9  h-1.6h-0.2h-1.6l-0.5,1.9c-1.3,0.4-2.5,1.1-3.4,2l-1.9-0.5l-0.8,1.4l-0.1,0.2l-0.8,1.4l1.4,1.4c-0.2,0.6-0.2,1.3-0.2,2  c0,0.7,0.1,1.3,0.2,2l-1.4,1.4l0.8,1.4l0.1,0.2l0.8,1.4l1.9-0.5c1,0.9,2.1,1.6,3.4,2l0.5,1.9h1.6h0.2h1.6l0.5-1.9  c1.3-0.4,2.5-1.1,3.4-2l1.9,0.5l0.8-1.4l0.1-0.2l0.8-1.4l-1.4-1.4C76,326.1,76.1,325.4,76.1,324.8z M68,328.9  c-2.3,0-4.1-1.8-4.1-4.1c0-2.3,1.8-4.1,4.1-4.1c2.3,0,4.1,1.8,4.1,4.1C72.1,327,70.2,328.9,68,328.9z"></path>
<path class="st12" d="M332.5,84.2c-3.2-1-8-2.2-13.9-2.2c-11.8-0.2-21.9,3.8-27.6,7.9c-22,16-28.1,46.8-19.9,70.6  c4.6,13.1,6.2,14.3,5.4,23.9c-1.2,14.8-10.9,23.3-10.4,41.9c0.1,3.3,0.5,5.9,0.7,7.4c13.6,2.9,24.3,2.4,31.4,1.4  c23-3.1,36.8-14.7,48.4-8.1c2.2,1.2,7.1,4.7,13.7,4.2c3.1-0.2,5.5-1.3,7-2.1c-11.3-17-13.1-30.5-12.7-39.5c0.7-15.6,8-21.8,9.1-43.4  c0.4-7.3,0.7-16.5-2.8-27.5c-1.4-4.4-7.6-23.7-25.2-32.9C334.4,85,333.2,84.5,332.5,84.2z"></path>
<path class="st9" d="M363.4,148.7c1.9-8.2-3.2-16.5-11.4-18.4c-8.2-1.9-16.5,3.2-18.4,11.4c-1.9,8.2,3.2,16.5,11.4,18.4  C353.2,162.1,361.5,157,363.4,148.7z"></path>
<path class="st9" d="M293.9,156.1c6-6,6-15.7,0-21.7c-6-6-15.7-6-21.7,0c-6,6-6,15.7,0,21.7C278.2,162,287.9,162,293.9,156.1z"></path>
<path class="st1" d="M315.8,98.5c17.1,0,32.6,15.4,32.4,42.1c-0.1,27.6-12.7,47-32.4,47s-33.3-19.4-33.4-47  C282.2,113.9,298.7,98.5,315.8,98.5z"></path>
<path class="st2" d="M282.8,128c0,0-2.7,8.4-4.3-6.9c-0.9-9,4.5-28.1,26.4-32.8c12.9-2.8,35.6-4.5,37.6,5.8  c0.8,4.4,17.2-0.2,6.4,36.2l-4-3.5c0,0-5.6-5.9-8-9.3c-1.3-1.9-5.1-7.6-5.1-7.6s-10.8,6.6-35.2,6.6c-11.4,0-13.7,13.5-13.7,13.5  L282.8,128z"></path>
<path class="st5" d="M315.7,167H305c0,0,0.5,6,5.6,9.3c3.3,2.1,7.2,2.1,10.4,0c5-3.3,5.6-9.3,5.6-9.3H315.7z"></path>
<path class="st5" d="M305,167c0,0,0.1,1,0.6,2.5h20.4c0.5-1.4,0.6-2.5,0.6-2.5h-10.8H305z"></path>
<path class="st9" d="M286,130c0-17.4,13.6-30,30-30s28,12.1,28,29.5c0,0.3,0,1.2,0,1.5h5c0-19.3-14.8-35-33-35s-35,15.7-35,35h5  C286,130.7,286,130.3,286,130z"></path>
</svg>